<svg width="28" height="28" viewBox="0 0 28 28" fill="none" xmlns="http://www.w3.org/2000/svg">
<path d="M14 28C21.732 28 28 21.732 28 14C28 6.26801 21.732 0 14 0C6.26801 0 0 6.26801 0 14C0 21.732 6.26801 28 14 28Z" fill="#80E29D"/>
<path d="M21.7881 25.6353C21.1099 26.0907 20.3929 26.4854 19.6454 26.8149C19.063 27.0719 18.4598 27.2907 17.8391 27.4668C16.6196 27.814 15.3317 28 14 28C12.6689 28 11.381 27.814 10.161 27.4673C9.76502 27.3547 9.37564 27.2245 8.99447 27.078C8.97087 27.0693 8.94735 27.0603 8.92393 27.0512C8.73197 26.9768 8.54221 26.8975 8.35463 26.8149C7.607 26.4851 6.88984 26.0902 6.21143 25.6347C6.78154 24.8469 7.51194 24.1886 8.35463 23.7032C8.91244 23.3822 9.51947 23.1377 10.161 22.984C10.2599 22.96 10.36 22.9381 10.4606 22.919C10.6504 22.8818 10.8435 22.8533 11.0387 22.8331C11.095 22.8271 11.1508 22.8216 11.2077 22.8173C11.3925 22.8019 11.5796 22.7943 11.7688 22.7943H16.2307C16.6697 22.7943 17.1077 22.8357 17.5388 22.9179C17.6149 22.9326 17.6903 22.9485 17.7653 22.9655C17.7899 22.972 17.815 22.9769 17.8391 22.9835C18.4811 23.1377 19.0876 23.3822 19.6454 23.7032C20.4892 24.1899 21.2199 24.8494 21.7881 25.6353Z" fill="#DD636E"/>
<path d="M11.7688 22.7943C10.1631 22.7943 9.07486 25.1147 8.99447 27.078C8.97087 27.0693 8.94735 27.0603 8.92393 27.0512C8.73197 26.9768 8.54221 26.8975 8.35463 26.8149C7.607 26.4851 6.88984 26.0902 6.21143 25.6347C6.78154 24.8469 7.51194 24.1886 8.35463 23.7032C8.91244 23.3822 9.51947 23.1377 10.161 22.984C10.2599 22.96 10.36 22.9381 10.4606 22.919C10.6504 22.8818 10.8435 22.8533 11.0387 22.8331C11.095 22.8271 11.1508 22.8216 11.2077 22.8173C11.3925 22.8019 11.5796 22.7943 11.7688 22.7943Z" fill="#D82E3D"/>
<path d="M13.9992 25.5998L11.1011 27.2104L10.2195 22.8362L12.0203 22.0491" fill="#4A81F6"/>
<path d="M13.9995 25.5998L16.8976 27.2104L17.7792 22.8362L15.9785 22.0491" fill="#61A2F9"/>
<path d="M16.445 20.1544V23.1551C16.445 24.2536 15.7206 25.1822 14.7229 25.4906C14.4886 25.5632 14.2447 25.6 13.9994 25.5998C12.6491 25.5998 11.5547 24.5054 11.5547 23.1551V20.1545H16.445V20.1544Z" fill="#EFB29A"/>
<path d="M16.4447 22.965V23.1551C16.4447 24.2536 15.7204 25.1822 14.7227 25.4906C13.8225 25.2139 13.1456 24.4312 13.0206 23.4735C13.184 23.4835 13.3482 23.4885 13.5133 23.4885C13.9759 23.4885 14.4293 23.4518 14.871 23.3793C15.4153 23.2918 15.9413 23.1517 16.4447 22.965ZM7.24814 15.2115C7.24814 16.3324 6.42931 17.2618 5.35711 17.4343C5.23783 17.4536 5.11721 17.4633 4.99639 17.4632C3.75246 17.4632 2.74463 16.4554 2.74463 15.2114C2.74463 13.9675 3.75246 12.9597 4.99639 12.9597C5.11938 12.9597 5.23991 12.9696 5.35711 12.9886C6.42931 13.1612 7.24814 14.0906 7.24814 15.2115Z" fill="#F9C5AC"/>
<path d="M7.2482 15.2115C7.2482 16.3324 6.42937 17.2619 5.35716 17.4343C5.16237 16.7261 5.05835 15.9808 5.05835 15.2115C5.05835 14.4422 5.16237 13.6969 5.35716 12.9887C6.42937 13.1612 7.2482 14.0906 7.2482 15.2115Z" fill="#EFB29A"/>
<path d="M4.99668 16.0163C5.44114 16.0163 5.80146 15.656 5.80146 15.2115C5.80146 14.767 5.44114 14.4067 4.99668 14.4067C4.55221 14.4067 4.19189 14.767 4.19189 15.2115C4.19189 15.656 4.55221 16.0163 4.99668 16.0163Z" fill="#EFB29A"/>
<path d="M20.751 15.2115C20.751 16.3324 21.5698 17.2618 22.642 17.4343C22.7592 17.4533 22.8797 17.4632 23.0027 17.4632C24.2467 17.4632 25.2545 16.4554 25.2545 15.2114C25.2545 13.9675 24.2467 12.9597 23.0027 12.9597C22.8797 12.9597 22.7592 12.9696 22.642 12.9886C21.5698 13.1612 20.751 14.0906 20.751 15.2115Z" fill="#F9C5AC"/>
<path d="M20.751 15.2115C20.751 16.3324 21.5698 17.2619 22.642 17.4343C22.8368 16.7261 22.9408 15.9808 22.9408 15.2115C22.9408 14.4422 22.8368 13.6969 22.642 12.9887C21.5698 13.1612 20.751 14.0906 20.751 15.2115Z" fill="#EFB29A"/>
<path d="M23.0028 16.0163C23.4472 16.0163 23.8076 15.656 23.8076 15.2115C23.8076 14.767 23.4472 14.4067 23.0028 14.4067C22.5583 14.4067 22.198 14.767 22.198 15.2115C22.198 15.656 22.5583 16.0163 23.0028 16.0163Z" fill="#EFB29A"/>
<path d="M22.4597 14.0279C22.4597 18.238 19.384 21.7305 15.3573 22.379C14.9155 22.4515 14.4621 22.4882 13.9995 22.4882C9.3268 22.4882 5.53931 18.7007 5.53931 14.028V5.4147H22.4598L22.4597 14.0279Z" fill="#F9C5AC"/>
<path d="M21.3088 8.41647V13.0873C21.3088 13.7215 21.823 14.2357 22.4573 14.2357C22.4589 14.1668 22.46 14.0974 22.46 14.0279V8.41647H21.3088Z" fill="#595959"/>
<path d="M15.4897 22.3568C15.4459 22.3645 15.4017 22.3721 15.3574 22.3792C14.9155 22.4514 14.4621 22.488 13.9995 22.488C9.39642 22.488 5.65196 18.813 5.54204 14.2357C5.5404 14.1668 5.53931 14.0973 5.53931 14.0279V5.41461H8.52251V14.0279C8.52251 18.1918 11.5292 21.6519 15.4897 22.3568Z" fill="#EFB29A"/>
<path d="M13.9998 18.4805C13.2914 18.4805 12.583 18.303 11.9372 17.9481C11.8498 17.9 11.785 17.8191 11.7571 17.7233C11.7293 17.6274 11.7407 17.5244 11.7887 17.4369C11.8368 17.3495 11.9177 17.2847 12.0135 17.2569C12.1094 17.229 12.2124 17.2404 12.2999 17.2885C13.3643 17.8737 14.6354 17.8736 15.6998 17.2885C15.7872 17.2412 15.8897 17.2305 15.985 17.2585C16.0803 17.2866 16.1607 17.3512 16.2085 17.4382C16.2564 17.5253 16.2679 17.6278 16.2405 17.7233C16.2131 17.8188 16.1491 17.8996 16.0624 17.9481C15.4167 18.3031 14.7082 18.4805 13.9998 18.4805Z" fill="#DD9F8A"/>
<path d="M14.9594 15.952H13.04C12.9302 15.952 12.8249 15.9084 12.7472 15.8307C12.6696 15.7531 12.626 15.6478 12.626 15.538C12.626 15.4282 12.6696 15.3229 12.7472 15.2453C12.8249 15.1676 12.9302 15.124 13.04 15.124H14.9594C15.0692 15.124 15.1745 15.1676 15.2521 15.2453C15.3298 15.3229 15.3734 15.4282 15.3734 15.538C15.3734 15.6478 15.3298 15.7531 15.2521 15.8307C15.1745 15.9084 15.0692 15.952 14.9594 15.952ZM15.3857 13.626C15.3857 14.5647 16.1467 15.3257 17.0854 15.3257C18.0241 15.3257 18.7851 14.5647 18.7851 13.626" fill="#EFB29A"/>
<path d="M17.0855 14.8448C17.7587 14.8448 18.3043 14.2991 18.3043 13.626C18.3043 12.9529 17.7587 12.4072 17.0855 12.4072C16.4124 12.4072 15.8667 12.9529 15.8667 13.626C15.8667 14.2991 16.4124 14.8448 17.0855 14.8448Z" fill="#2F373B"/>
<path d="M17.5933 13.9331C17.8818 13.9331 18.1156 13.6993 18.1156 13.4109C18.1156 13.1224 17.8818 12.8886 17.5933 12.8886C17.3049 12.8886 17.071 13.1224 17.071 13.4109C17.071 13.6993 17.3049 13.9331 17.5933 13.9331Z" fill="white"/>
<path d="M9.21436 13.626C9.21436 14.5647 9.97533 15.3257 10.914 15.3257C11.8528 15.3257 12.6137 14.5647 12.6137 13.626" fill="#EFB29A"/>
<path d="M10.9139 14.8448C11.587 14.8448 12.1327 14.2991 12.1327 13.626C12.1327 12.9529 11.587 12.4072 10.9139 12.4072C10.2408 12.4072 9.69507 12.9529 9.69507 13.626C9.69507 14.2991 10.2408 14.8448 10.9139 14.8448Z" fill="#2F373B"/>
<path d="M11.199 14.8111C11.1076 14.8335 11.0119 14.845 10.9141 14.845C10.2409 14.845 9.69507 14.2992 9.69507 13.626C9.69507 12.9528 10.2409 12.407 10.9141 12.407C11.0119 12.407 11.1076 12.4185 11.199 12.4409C10.663 12.5689 10.2655 13.0512 10.2655 13.626C10.2655 14.2008 10.663 14.6831 11.199 14.8111ZM17.3705 14.8111C17.2791 14.8335 17.1834 14.845 17.0855 14.845C16.4123 14.845 15.8666 14.2992 15.8666 13.626C15.8666 12.9528 16.4123 12.407 17.0855 12.407C17.1834 12.407 17.2791 12.4185 17.3705 12.4409C16.8345 12.5689 16.4369 13.0512 16.4369 13.626C16.4369 14.2008 16.8345 14.6831 17.3705 14.8111Z" fill="#181E21"/>
<path d="M11.4219 13.9331C11.7104 13.9331 11.9442 13.6993 11.9442 13.4109C11.9442 13.1224 11.7104 12.8886 11.4219 12.8886C11.1335 12.8886 10.8997 13.1224 10.8997 13.4109C10.8997 13.6993 11.1335 13.9331 11.4219 13.9331Z" fill="white"/>
<path d="M23.0284 8.98736C20.0419 10.6936 15.2015 9.58892 12.1921 8.61166C10.5837 8.08994 9.49815 7.60486 9.49815 7.60486C8.84354 9.79509 6.73369 11.5331 5.53932 11.5331C5.53932 11.5331 2.9876 5.09525 4.8426 3.24025C6.6976 1.38525 8.26166 3.24025 8.26166 3.24025C8.39073 1.38744 9.36252 0.584077 10.7089 0.371889C10.7095 0.371342 10.7106 0.371342 10.7111 0.371342C10.7696 0.362045 10.8287 0.353842 10.8888 0.346733C13.591 0.0300924 17.6548 1.90587 19.5524 2.51126C19.553 2.51126 19.553 2.51181 19.5535 2.51181C19.9123 2.62611 20.1934 2.69501 20.3733 2.69501C22.0101 2.69501 22.1556 0.912749 22.1556 0.912749C22.1556 0.912749 27.6112 6.36837 23.0284 8.98736Z" fill="#595959"/>
<path d="M12.1921 8.61165C10.5837 8.08993 9.49815 7.60486 9.49815 7.60486C8.84354 9.79509 6.73369 11.5331 5.53932 11.5331C5.53932 11.5331 2.9876 5.09525 4.8426 3.24025C6.6976 1.38525 8.26166 3.24025 8.26166 3.24025C8.39073 1.38743 9.36252 0.584075 10.7089 0.371887C9.18479 0.813762 9.88205 6.98743 12.1921 8.61165ZM19.5535 2.51181C19.9123 2.62611 20.1934 2.69501 20.3733 2.69501C22.0101 2.69501 22.1556 0.912747 22.1556 0.912747C22.5679 2.2947 22.3831 4.18306 19.5535 2.51181Z" fill="#454545"/>
<path d="M6.69048 10.599V13.0873C6.69048 13.7215 6.17631 14.2357 5.54204 14.2357C5.5404 14.1668 5.53931 14.0974 5.53931 14.0279V10.599H6.69048Z" fill="#454545"/>
</svg>
